<?xml version="1.0" encoding="UTF-8"?>
<svg version="1.1" xmlns="http://www.w3.org/2000/svg" width="683" height="158">
<path d="M0 0 C30.36 0 60.72 0 92 0 C92 1.32 92 2.64 92 4 C95.96 4 99.92 4 104 4 C104.33 5.32 104.66 6.64 105 8 C106.32 8 107.64 8 109 8 C109 9.32 109 10.64 109 12 C110.32 12 111.64 12 113 12 C113 13.32 113 14.64 113 16 C114.32 16 115.64 16 117 16 C117 17.65 117 19.3 117 21 C118.32 21 119.64 21 121 21 C121 24.96 121 28.92 121 33 C122.32 33 123.64 33 125 33 C125 63.36 125 93.72 125 125 C123.68 125 122.36 125 121 125 C121 128.96 121 132.92 121 137 C119.68 137 118.36 137 117 137 C117 138.65 117 140.3 117 142 C115.68 142 114.36 142 113 142 C113 143.32 113 144.64 113 146 C111.68 146 110.36 146 109 146 C109 147.32 109 148.64 109 150 C107.68 150 106.36 150 105 150 C104.67 151.32 104.34 152.64 104 154 C100.04 154 96.08 154 92 154 C92 155.32 92 156.64 92 158 C61.64 158 31.28 158 0 158 C0 156.68 0 155.36 0 154 C-3.96 154 -7.92 154 -12 154 C-12 152.68 -12 151.36 -12 150 C-13.65 149.67 -15.3 149.34 -17 149 C-17 148.01 -17 147.02 -17 146 C-18.32 146 -19.64 146 -21 146 C-21 144.68 -21 143.36 -21 142 C-22.32 141.67 -23.64 141.34 -25 141 C-25 139.68 -25 138.36 -25 137 C-26.32 137 -27.64 137 -29 137 C-29 133.04 -29 129.08 -29 125 C-30.32 125 -31.64 125 -33 125 C-33 94.64 -33 64.28 -33 33 C-31.68 33 -30.36 33 -29 33 C-29 29.04 -29 25.08 -29 21 C-27.68 21 -26.36 21 -25 21 C-24.67 19.35 -24.34 17.7 -24 16 C-23.01 16 -22.02 16 -21 16 C-21 14.68 -21 13.36 -21 12 C-19.68 12 -18.36 12 -17 12 C-16.67 10.68 -16.34 9.36 -16 8 C-14.68 8 -13.36 8 -12 8 C-12 6.68 -12 5.36 -12 4 C-8.04 4 -4.08 4 0 4 C0 2.68 0 1.36 0 0 Z " fill="#E5E8EC" transform="translate(33,0)"/>
<path d="M0 0 C30.36 0 60.72 0 92 0 C92 1.32 92 2.64 92 4 C95.96 4 99.92 4 104 4 C104.33 5.32 104.66 6.64 105 8 C106.32 8 107.64 8 109 8 C109 9.32 109 10.64 109 12 C110.32 12 111.64 12 113 12 C113 13.32 113 14.64 113 16 C114.32 16 115.64 16 117 16 C117 17.65 117 19.3 117 21 C118.32 21 119.64 21 121 21 C121 24.96 121 28.92 121 33 C122.32 33 123.64 33 125 33 C125 63.36 125 93.72 125 125 C123.68 125 122.36 125 121 125 C121 128.96 121 132.92 121 137 C119.68 137 118.36 137 117 137 C117 138.65 117 140.3 117 142 C115.68 142 114.36 142 113 142 C113 143.32 113 144.64 113 146 C111.68 146 110.36 146 109 146 C109 147.32 109 148.64 109 150 C107.68 150 106.36 150 105 150 C104.67 151.32 104.34 152.64 104 154 C100.04 154 96.08 154 92 154 C92 155.32 92 156.64 92 158 C61.64 158 31.28 158 0 158 C0 156.68 0 155.36 0 154 C-3.96 154 -7.92 154 -12 154 C-12 152.68 -12 151.36 -12 150 C-13.65 149.67 -15.3 149.34 -17 149 C-17 148.01 -17 147.02 -17 146 C-18.32 146 -19.64 146 -21 146 C-21 144.68 -21 143.36 -21 142 C-22.32 141.67 -23.64 141.34 -25 141 C-25 139.68 -25 138.36 -25 137 C-26.32 137 -27.64 137 -29 137 C-29 133.04 -29 129.08 -29 125 C-30.32 125 -31.64 125 -33 125 C-33 94.64 -33 64.28 -33 33 C-31.68 33 -30.36 33 -29 33 C-29 29.04 -29 25.08 -29 21 C-27.68 21 -26.36 21 -25 21 C-24.67 19.35 -24.34 17.7 -24 16 C-23.01 16 -22.02 16 -21 16 C-21 14.68 -21 13.36 -21 12 C-19.68 12 -18.36 12 -17 12 C-16.67 10.68 -16.34 9.36 -16 8 C-14.68 8 -13.36 8 -12 8 C-12 6.68 -12 5.36 -12 4 C-8.04 4 -4.08 4 0 4 C0 2.68 0 1.36 0 0 Z M-4 8 C-4 9.32 -4 10.64 -4 12 C-6.97 12 -9.94 12 -13 12 C-13 13.32 -13 14.64 -13 16 C-14.32 16 -15.64 16 -17 16 C-17 18.97 -17 21.94 -17 25 C-18.32 25 -19.64 25 -21 25 C-21 58 -21 91 -21 125 C-19.68 125 -18.36 125 -17 125 C-17 127.64 -17 130.28 -17 133 C-15.68 133 -14.36 133 -13 133 C-12.505 135.475 -12.505 135.475 -12 138 C-9.36 138 -6.72 138 -4 138 C-4 139.32 -4 140.64 -4 142 C29 142 62 142 96 142 C96 140.68 96 139.36 96 138 C98.97 138 101.94 138 105 138 C105 136.35 105 134.7 105 133 C106.32 133 107.64 133 109 133 C109 130.36 109 127.72 109 125 C110.32 125 111.64 125 113 125 C113 92 113 59 113 25 C111.68 25 110.36 25 109 25 C109 22.03 109 19.06 109 16 C107.68 16 106.36 16 105 16 C105 14.68 105 13.36 105 12 C102.03 12 99.06 12 96 12 C96 10.68 96 9.36 96 8 C63 8 30 8 -4 8 Z " fill="#0D101C" transform="translate(33,0)"/>
<path d="M0 0 C8.25 0 16.5 0 25 0 C25 1.32 25 2.64 25 4 C26.32 4 27.64 4 29 4 C29 5.32 29 6.64 29 8 C32.96 8 36.92 8 41 8 C41.33 7.01 41.66 6.02 42 5 C45.465 4.505 45.465 4.505 49 4 C49 2.68 49 1.36 49 0 C57.58 0 66.16 0 75 0 C75 1.32 75 2.64 75 4 C76.32 4 77.64 4 79 4 C79 5.32 79 6.64 79 8 C80.32 8 81.64 8 83 8 C83 9.65 83 11.3 83 13 C84.32 13 85.64 13 87 13 C87 19.6 87 26.2 87 33 C85.68 33 84.36 33 83 33 C83 31.68 83 30.36 83 29 C80.36 29 77.72 29 75 29 C74.505 27.515 74.505 27.515 74 26 C71.98491642 25.26676204 71.98491642 25.26676204 70 25 C70 23.68 70 22.36 70 21 C57.79 21 45.58 21 33 21 C33 22.32 33 23.64 33 25 C31.68 25 30.36 25 29 25 C29 26.32 29 27.64 29 29 C27.68 29 26.36 29 25 29 C25 30.65 25 32.3 25 34 C27.64 33.67 30.28 33.34 33 33 C33 32.01 33 31.02 33 30 C36.96 30 40.92 30 45 30 C45 32.64 45 35.28 45 38 C46.65 38 48.3 38 50 38 C50 36.68 50 35.36 50 34 C59.57 34 69.14 34 79 34 C79 35.32 79 36.64 79 38 C80.32 38 81.64 38 83 38 C83 43.28 83 48.56 83 54 C81.68 54 80.36 54 79 54 C79 55.65 79 57.3 79 59 C77.68 59 76.36 59 75 59 C75 60.32 75 61.64 75 63 C73.68 63 72.36 63 71 63 C71 64.32 71 65.64 71 67 C69.35 67 67.7 67 66 67 C66 68.32 66 69.64 66 71 C63.36 71 60.72 71 58 71 C58 72.32 58 73.64 58 75 C56.68 75 55.36 75 54 75 C54 76.32 54 77.64 54 79 C51.36 79 48.72 79 46 79 C46 80.32 46 81.64 46 83 C40.39 83 34.78 83 29 83 C29 81.68 29 80.36 29 79 C26.36 79 23.72 79 21 79 C21 77.68 21 76.36 21 75 C22.32 75 23.64 75 25 75 C25 73.68 25 72.36 25 71 C28.96 71 32.92 71 37 71 C37 69.68 37 68.36 37 67 C39.97 67 42.94 67 46 67 C46 65.68 46 64.36 46 63 C46.99 63 47.98 63 49 63 C49 61.68 49 60.36 49 59 C46.36 59 43.72 59 41 59 C41 60.32 41 61.64 41 63 C35.39 63 29.78 63 24 63 C24 61.68 24 60.36 24 59 C14.43 59 4.86 59 -5 59 C-5 56.03 -5 53.06 -5 50 C-6.32 50 -7.64 50 -9 50 C-9 48.68 -9 47.36 -9 46 C-10.32 46 -11.64 46 -13 46 C-13 35.11 -13 24.22 -13 13 C-11.68 13 -10.36 13 -9 13 C-9 11.35 -9 9.7 -9 8 C-7.68 8 -6.36 8 -5 8 C-5 6.68 -5 5.36 -5 4 C-3.35 4 -1.7 4 0 4 C0 2.68 0 1.36 0 0 Z " fill="#4AC684" transform="translate(42,33)"/>
<path d="M0 0 C30.36 0 60.72 0 92 0 C92 1.32 92 2.64 92 4 C95.96 4 99.92 4 104 4 C104.33 5.32 104.66 6.64 105 8 C106.32 8 107.64 8 109 8 C109 9.32 109 10.64 109 12 C110.32 12 111.64 12 113 12 C113 13.32 113 14.64 113 16 C114.32 16 115.64 16 117 16 C117 17.65 117 19.3 117 21 C118.32 21 119.64 21 121 21 C121 24.96 121 28.92 121 33 C122.32 33 123.64 33 125 33 C125 63.36 125 93.72 125 125 C123.68 125 122.36 125 121 125 C121 128.96 121 132.92 121 137 C119.68 137 118.36 137 117 137 C117 138.65 117 140.3 117 142 C115.68 142 114.36 142 113 142 C113 139.03 113 136.06 113 133 C114.32 133 115.64 133 117 133 C117 98.68 117 64.36 117 29 C115.68 29 114.36 29 113 29 C113 27.68 113 26.36 113 25 C111.68 25 110.36 25 109 25 C109 22.03 109 19.06 109 16 C107.68 16 106.36 16 105 16 C105 14.68 105 13.36 105 12 C102.03 12 99.06 12 96 12 C96 10.68 96 9.36 96 8 C63 8 30 8 -4 8 C-4 9.32 -4 10.64 -4 12 C-6.97 12 -9.94 12 -13 12 C-13 13.32 -13 14.64 -13 16 C-14.32 16 -15.64 16 -17 16 C-17 18.97 -17 21.94 -17 25 C-18.32 25 -19.64 25 -21 25 C-21 26.32 -21 27.64 -21 29 C-22.32 29 -23.64 29 -25 29 C-25 63.32 -25 97.64 -25 133 C-23.68 133 -22.36 133 -21 133 C-21 135.97 -21 138.94 -21 142 C-22.32 141.67 -23.64 141.34 -25 141 C-25 139.68 -25 138.36 -25 137 C-26.32 137 -27.64 137 -29 137 C-29 133.04 -29 129.08 -29 125 C-30.32 125 -31.64 125 -33 125 C-33 94.64 -33 64.28 -33 33 C-31.68 33 -30.36 33 -29 33 C-29 29.04 -29 25.08 -29 21 C-27.68 21 -26.36 21 -25 21 C-24.67 19.35 -24.34 17.7 -24 16 C-23.01 16 -22.02 16 -21 16 C-21 14.68 -21 13.36 -21 12 C-19.68 12 -18.36 12 -17 12 C-16.67 10.68 -16.34 9.36 -16 8 C-14.68 8 -13.36 8 -12 8 C-12 6.68 -12 5.36 -12 4 C-8.04 4 -4.08 4 0 4 C0 2.68 0 1.36 0 0 Z " fill="#000001" transform="translate(33,0)"/>
<path d="M0 0 C7.46925037 4.67001368 12.06399373 9.95234996 15.10546875 18.31640625 C15.10546875 19.30640625 15.10546875 20.29640625 15.10546875 21.31640625 C12.04083476 21.4788108 8.98482601 21.59745439 5.91796875 21.69140625 C5.05365234 21.74167969 4.18933594 21.79195312 3.29882812 21.84375 C-3.05761487 21.98987513 -3.05761487 21.98987513 -5.5246582 20.00463867 C-6.73250021 18.50628303 -7.82041103 16.91334636 -8.89453125 15.31640625 C-13.60897588 12.90680122 -17.88004891 12.93517159 -22.89453125 14.31640625 C-27.95499458 16.98985858 -30.56141297 19.80182169 -32.58203125 25.12890625 C-33.53346393 31.78893499 -33.11356383 37.36183214 -29.89453125 43.31640625 C-26.72805158 47.03701986 -24.5807532 49.03437606 -19.625 49.5546875 C-13.82870623 49.72385736 -10.44314268 49.29644126 -5.89453125 45.31640625 C-5.23453125 44.32640625 -4.57453125 43.33640625 -3.89453125 42.31640625 C-1.92333984 41.97583008 -1.92333984 41.97583008 0.45703125 42.0234375 C1.73320312 42.03793945 1.73320312 42.03793945 3.03515625 42.05273438 C3.92460937 42.07787109 4.8140625 42.10300781 5.73046875 42.12890625 C7.07625 42.14920898 7.07625 42.14920898 8.44921875 42.16992188 C10.66856664 42.205337 12.88672063 42.25472164 15.10546875 42.31640625 C14.09345137 50.6008276 9.243159 55.91219541 2.8984375 61.06640625 C-4.85135525 66.46931187 -13.73749252 66.95500422 -22.89453125 66.31640625 C-32.22598176 64.54147301 -39.57956564 60.22765972 -45.24609375 52.46484375 C-51.66482535 42.74290524 -52.47312994 31.41921347 -50.27734375 20.1484375 C-47.79568546 12.36305818 -43.24953302 6.01328142 -36.2578125 1.68359375 C-25.55382343 -3.78559775 -11.15166387 -5.50865324 0 0 Z " fill="#FFFFFF" transform="translate(474.89453125,47.68359375)"/>
<path d="M0 0 C2.375 2 2.375 2 3.375 3 C3.705 1.35 4.035 -0.3 4.375 -2 C10.315 -2 16.255 -2 22.375 -2 C22.375 15.82 22.375 33.64 22.375 52 C16.435 52 10.495 52 4.375 52 C3.88 50.02 3.88 50.02 3.375 48 C2.446875 48.639375 1.51875 49.27875 0.5625 49.9375 C-5.27965581 53.71771846 -10.83981358 53.60351086 -17.625 53 C-23.8791424 51.27829579 -28.06707527 47.30353155 -31.625 42 C-36.33440601 33.37222102 -36.79252101 23.70795422 -34.4453125 14.26953125 C-32.03424424 7.59890906 -27.98527229 2.24503688 -21.625 -1 C-14.8656577 -3.78325859 -6.3118417 -4.16733645 0 0 Z M-15.4375 16.5 C-18.14892729 20.00083018 -18.27877055 23.2684672 -18.05078125 27.59375 C-17.41970493 31.16019965 -16.02767635 33.33035961 -13.625 36 C-9.83217245 38.37450128 -7.06001708 38.14233789 -2.75 37.546875 C0.23279164 36.7792448 1.61681038 35.49076863 3.375 33 C5.11118337 27.79144989 5.18474082 22.2386952 3.3125 17.0625 C0.68058679 14.26078594 -2.02436981 13.24385406 -5.625 12 C-9.85755803 12 -12.32561952 13.73388401 -15.4375 16.5 Z " fill="#FFFFFF" transform="translate(531.625,61)"/>
<path d="M0 0 C1.65 0 3.3 0 5 0 C6.43088528 2.86177057 5.59991697 4.93375773 5 8 C6.32 8 7.64 8 9 8 C9 10.97 9 13.94 9 17 C10.32 17 11.64 17 13 17 C13 19.64 13 22.28 13 25 C14.32 25 15.64 25 17 25 C17 26.65 17 28.3 17 30 C18.32 30 19.64 30 21 30 C21 31.32 21 32.64 21 34 C22.32 34 23.64 34 25 34 C25 35.32 25 36.64 25 38 C27.97 38 30.94 38 34 38 C34 39.32 34 40.64 34 42 C35.32 42 36.64 42 38 42 C38 44.64 38 47.28 38 50 C44.93 50 51.86 50 59 50 C59 51.32 59 52.64 59 54 C64.28 54.33 69.56 54.66 75 55 C75 57.31 75 59.62 75 62 C73.68 62 72.36 62 71 62 C71 63.65 71 65.3 71 67 C68.36 67 65.72 67 63 67 C63 68.32 63 69.64 63 71 C61.68 71 60.36 71 59 71 C59 72.32 59 73.64 59 75 C56.36 75 53.72 75 51 75 C51 76.32 51 77.64 51 79 C45.39 79 39.78 79 34 79 C34 77.68 34 76.36 34 75 C31.36 75 28.72 75 26 75 C26 73.68 26 72.36 26 71 C27.32 71 28.64 71 30 71 C30 69.68 30 68.36 30 67 C33.96 67 37.92 67 42 67 C42 65.68 42 64.36 42 63 C44.97 63 47.94 63 51 63 C51 61.68 51 60.36 51 59 C51.99 59 52.98 59 54 59 C54 57.68 54 56.36 54 55 C51.36 55 48.72 55 46 55 C46 56.32 46 57.64 46 59 C40.39 59 34.78 59 29 59 C29 57.68 29 56.36 29 55 C19.43 55 9.86 55 0 55 C0 52.03 0 49.06 0 46 C-1.32 46 -2.64 46 -4 46 C-4 44.68 -4 43.36 -4 42 C-5.32 42 -6.64 42 -8 42 C-8 31.11 -8 20.22 -8 9 C-6.68 9 -5.36 9 -4 9 C-4 7.35 -4 5.7 -4 4 C-2.68 4 -1.36 4 0 4 C0 2.68 0 1.36 0 0 Z " fill="#2198CF" transform="translate(37,37)"/>
<path d="M0 0 C6.76485499 5.12939554 10.37374927 10.97759743 11.77734375 19.34765625 C12.02317905 22.43683196 11.97475962 25.23835636 11.77734375 28.34765625 C10.77734375 29.34765625 10.77734375 29.34765625 7.35913086 29.46118164 C5.84097387 29.46102253 4.32281146 29.45532851 2.8046875 29.4453125 C2.00704483 29.44389755 1.20940216 29.4424826 0.3875885 29.44102478 C-2.1700306 29.43540941 -4.72756343 29.42285437 -7.28515625 29.41015625 C-9.0149727 29.40514323 -10.74479051 29.40057998 -12.47460938 29.39648438 C-16.72399178 29.385435 -20.97330937 29.36816011 -25.22265625 29.34765625 C-23.78983359 33.18736961 -22.95037746 35.38024783 -19.22265625 37.34765625 C-15.78249133 37.63433666 -12.45351413 37.66393168 -9.22265625 36.34765625 C-8.89265625 35.35765625 -8.56265625 34.36765625 -8.22265625 33.34765625 C-2.28265625 33.34765625 3.65734375 33.34765625 9.77734375 33.34765625 C8.5044724 40.98488435 5.73244697 44.42707291 -0.41796875 48.96875 C-8.17376188 53.48656349 -16.40644099 53.56537625 -25.05859375 51.75390625 C-31.81538279 49.50857328 -36.22768425 45.15407389 -40.22265625 39.34765625 C-44.2183828 30.50942666 -44.11534186 21.75083858 -41.13671875 12.67578125 C-38.43597868 5.79697322 -34.288781 1.8259664 -27.72265625 -1.33984375 C-18.9829057 -4.61725021 -8.25460424 -4.86899489 0 0 Z M-24.22265625 14.34765625 C-24.55265625 15.99765625 -24.88265625 17.64765625 -25.22265625 19.34765625 C-18.95265625 19.34765625 -12.68265625 19.34765625 -6.22265625 19.34765625 C-6.68966673 14.30739509 -6.68966673 14.30739509 -9.97265625 12.03515625 C-15.96817376 8.92209908 -19.08128064 10.02422676 -24.22265625 14.34765625 Z " fill="#FFFFFF" transform="translate(645.22265625,61.65234375)"/>
<path d="M0 0 C7.16414113 6.00749231 10.3167945 11.40446927 11.37109375 20.67578125 C11.77895488 29.49577815 9.84062197 36.63372639 4.24609375 43.54296875 C-3.0826863 50.65062182 -11.22548298 51.66956321 -21.01953125 51.578125 C-28.83329072 50.9671372 -35.3965784 47.15544343 -40.56640625 41.30078125 C-45.45200202 33.87586366 -46.65271396 25.55950823 -45.140625 16.84765625 C-43.18314075 9.01771926 -39.01865101 3.21413497 -32.12890625 -1.07421875 C-21.70818908 -5.82752833 -9.91712422 -6.56613248 0 0 Z M-24.56640625 13.30078125 C-28.19171509 17.16777735 -28.11917048 21.5661538 -27.99609375 26.6328125 C-27.32249303 30.81526058 -25.67354915 32.48955672 -22.56640625 35.30078125 C-19.41729146 36.87533864 -17.04631809 36.64877243 -13.56640625 36.30078125 C-10.08642109 34.29785646 -7.85956175 32.18024776 -6.56640625 28.30078125 C-6.0393354 23.28064741 -6.03830578 19.39610074 -8.25390625 14.80078125 C-10.66994923 12.18884289 -12.15005364 11.1767691 -15.56640625 10.30078125 C-19.37947978 10.30078125 -21.31469503 11.33620572 -24.56640625 13.30078125 Z " fill="#FFFFFF" transform="translate(302.56640625,62.69921875)"/>
<path d="M0 0 C5.61 0 11.22 0 17 0 C17.03738281 2.32417969 17.07476562 4.64835937 17.11328125 7.04296875 C17.1595442 9.30356041 17.21076028 11.5639896 17.26245117 13.82446289 C17.29562532 15.39076801 17.32368058 16.95719051 17.34643555 18.52368164 C17.38012116 20.78061763 17.43244049 23.03648526 17.48828125 25.29296875 C17.49467117 25.98899704 17.5010611 26.68502533 17.50764465 27.40214539 C17.63766808 31.73955629 18.35102356 34.53988871 21 38 C23.32686453 39.16343227 24.84721413 39.19895988 27.4375 39.25 C28.61119141 39.28867188 28.61119141 39.28867188 29.80859375 39.328125 C32.53677498 38.91962728 33.3441611 38.16727539 35 36 C36.18001549 32.45995354 36.22912346 29.1772744 36.31640625 25.48828125 C36.33718735 24.76005661 36.35796844 24.03183197 36.37937927 23.28153992 C36.44468746 20.95862125 36.50367237 18.63559094 36.5625 16.3125 C36.60570305 14.73631665 36.64931792 13.16014452 36.69335938 11.58398438 C36.80112368 7.72276896 36.90033556 3.861467 37 0 C42.61 0 48.22 0 54 0 C54 17.82 54 35.64 54 54 C48.39 54 42.78 54 37 54 C36.505 52.02 36.505 52.02 36 50 C34.906875 50.639375 33.81375 51.27875 32.6875 51.9375 C26.54928187 55.52777853 20.4737144 56.05768328 13.5546875 54.421875 C7.24474983 52.06901689 3.84884698 48.03345092 1 42 C-0.19917332 37.50323023 -0.12807835 33.03628025 -0.09765625 28.41796875 C-0.09553383 27.19670036 -0.09553383 27.19670036 -0.09336853 25.95075989 C-0.08779317 23.36296844 -0.07524524 20.77526508 -0.0625 18.1875 C-0.05748181 16.42773563 -0.05291946 14.66796989 -0.04882812 12.90820312 C-0.03868481 8.60540791 -0.0191047 4.302802 0 0 Z " fill="#FFFFFF" transform="translate(321,59)"/>
<path d="M0 0 C6.6 0 13.2 0 20 0 C23.96 8.58 27.92 17.16 32 26 C33.8253125 22.349375 33.8253125 22.349375 35.6875 18.625 C40.34375 9.3125 40.34375 9.3125 45 0 C51.27 0 57.54 0 64 0 C61.75483339 6.73549984 61.75483339 6.73549984 59.95288086 9.89624023 C59.555905 10.6030896 59.15892914 11.30993896 58.74992371 12.03820801 C58.11380913 13.16204895 58.11380913 13.16204895 57.46484375 14.30859375 C42.98541904 39.55874804 42.98541904 39.55874804 41 68 C35.39 68 29.78 68 24 68 C24.04890381 66.66203369 24.09780762 65.32406738 24.14819336 63.94555664 C24.3151812 48.40254888 20.10095466 37.80988164 12.5625 24.4375 C11.56836368 22.60693138 10.57810812 20.77424974 9.59179688 18.93945312 C7.44055435 14.94242726 5.25396456 10.96734101 3.03102112 7.00975037 C1.86905284 4.74474713 0.94543622 2.36359055 0 0 Z " fill="#FFFFFF" transform="translate(191,45)"/>
<path d="M0 0 C1.65 0 3.3 0 5 0 C5 1.32 5 2.64 5 4 C6.32 4 7.64 4 9 4 C9 5.32 9 6.64 9 8 C9.99 8 10.98 8 12 8 C12 6.68 12 5.36 12 4 C13.32 4 14.64 4 16 4 C16.33 5.32 16.66 6.64 17 8 C19.64 8 22.28 8 25 8 C25 7.01 25 6.02 25 5 C28.96 5 32.92 5 37 5 C37 7.64 37 10.28 37 13 C38.65 13 40.3 13 42 13 C42 11.68 42 10.36 42 9 C51.57 9 61.14 9 71 9 C71 10.32 71 11.64 71 13 C72.32 13 73.64 13 75 13 C75 18.28 75 23.56 75 29 C73.68 29 72.36 29 71 29 C71 30.65 71 32.3 71 34 C69.68 34 68.36 34 67 34 C67 35.32 67 36.64 67 38 C65.68 38 64.36 38 63 38 C63 39.32 63 40.64 63 42 C61.35 42 59.7 42 58 42 C59.98 41.505 59.98 41.505 62 41 C62 38.69 62 36.38 62 34 C61.18015625 34.01160156 60.3603125 34.02320313 59.515625 34.03515625 C58.43796875 34.04417969 57.3603125 34.05320313 56.25 34.0625 C54.64898437 34.07990234 54.64898437 34.07990234 53.015625 34.09765625 C50.46631499 34.01510087 48.42066409 33.74617558 46 33 C46 31.68 46 30.36 46 29 C39.07 29 32.14 29 25 29 C25 26.36 25 23.72 25 21 C23.68 21 22.36 21 21 21 C21 19.68 21 18.36 21 17 C18.03 17 15.06 17 12 17 C12 15.68 12 14.36 12 13 C10.68 13 9.36 13 8 13 C8 11.68 8 10.36 8 9 C6.68 9 5.36 9 4 9 C4 7.35 4 5.7 4 4 C2.68 4 1.36 4 0 4 C0 2.68 0 1.36 0 0 Z " fill="#45C385" transform="translate(50,58)"/>
<path d="M0 0 C5.61 0 11.22 0 17 0 C17.33 1.98 17.66 3.96 18 6 C18.804375 5.195625 19.60875 4.39125 20.4375 3.5625 C24.36125278 0.2315444 27.96901636 0.22868107 33 0 C33 5.94 33 11.88 33 18 C30.55859375 18.09765625 28.1171875 18.1953125 25.67578125 18.29296875 C21.9095834 19.28812468 20.45631507 21.00680752 18 24 C17.22673831 27.36687898 17.22673831 27.36687898 17.29296875 31.05078125 C17.27784744 31.70958786 17.26272614 32.36839447 17.24714661 33.04716492 C17.20441434 35.135962 17.19544735 37.2233102 17.1875 39.3125 C17.16434386 40.73506417 17.13897617 42.15759417 17.11132812 43.58007812 C17.0444798 47.05416509 17.02338414 50.5242667 17 54 C11.39 54 5.78 54 0 54 C0 36.18 0 18.36 0 0 Z " fill="#FFFFFF" transform="translate(565,59)"/>
<path d="M0 0 C5.61 0 11.22 0 17 0 C17.33 1.98 17.66 3.96 18 6 C18.804375 5.195625 19.60875 4.39125 20.4375 3.5625 C24.36125278 0.2315444 27.96901636 0.22868107 33 0 C33 5.94 33 11.88 33 18 C30.55859375 18.09765625 28.1171875 18.1953125 25.67578125 18.29296875 C21.9095834 19.28812468 20.45631507 21.00680752 18 24 C17.22673831 27.36687898 17.22673831 27.36687898 17.29296875 31.05078125 C17.27784744 31.70958786 17.26272614 32.36839447 17.24714661 33.04716492 C17.20441434 35.135962 17.19544735 37.2233102 17.1875 39.3125 C17.16434386 40.73506417 17.13897617 42.15759417 17.11132812 43.58007812 C17.0444798 47.05416509 17.02338414 50.5242667 17 54 C11.39 54 5.78 54 0 54 C0 36.18 0 18.36 0 0 Z " fill="#FFFFFF" transform="translate(386,59)"/>
<path d="M0 0 C2.97 0 5.94 0 9 0 C9 1.32 9 2.64 9 4 C44.64 4 80.28 4 117 4 C117 2.68 117 1.36 117 0 C119.97 0 122.94 0 126 0 C126 1.32 126 2.64 126 4 C124.68 4 123.36 4 122 4 C121.67 5.32 121.34 6.64 121 8 C117.04 8 113.08 8 109 8 C109 9.32 109 10.64 109 12 C78.64 12 48.28 12 17 12 C17 10.68 17 9.36 17 8 C13.04 8 9.08 8 5 8 C5 6.68 5 5.36 5 4 C3.35 3.67 1.7 3.34 0 3 C0 2.01 0 1.02 0 0 Z " fill="#000000" transform="translate(16,146)"/>
<path d="M0 0 C1.65 0 3.3 0 5 0 C5 1.32 5 2.64 5 4 C11.6 4 18.2 4 25 4 C25 2.68 25 1.36 25 0 C27.97 0 30.94 0 34 0 C34 1.65 34 3.3 34 5 C32.68 5 31.36 5 30 5 C30 5.99 30 6.98 30 8 C33.96 8 37.92 8 42 8 C42 6.68 42 5.36 42 4 C44.64 4 47.28 4 50 4 C50 2.68 50 1.36 50 0 C52.97 0 55.94 0 59 0 C59 1.32 59 2.64 59 4 C64.28 4.33 69.56 4.66 75 5 C75 7.31 75 9.62 75 12 C73.68 12 72.36 12 71 12 C71 13.65 71 15.3 71 17 C68.36 17 65.72 17 63 17 C63 18.32 63 19.64 63 21 C61.68 21 60.36 21 59 21 C59 22.32 59 23.64 59 25 C56.36 25 53.72 25 51 25 C51 26.32 51 27.64 51 29 C45.39 29 39.78 29 34 29 C34 27.68 34 26.36 34 25 C31.36 25 28.72 25 26 25 C26 23.68 26 22.36 26 21 C27.32 21 28.64 21 30 21 C30 19.68 30 18.36 30 17 C33.96 17 37.92 17 42 17 C42 15.68 42 14.36 42 13 C44.97 13 47.94 13 51 13 C51 11.68 51 10.36 51 9 C51.99 9 52.98 9 54 9 C54 7.68 54 6.36 54 5 C51.36 5 48.72 5 46 5 C46 6.32 46 7.64 46 9 C40.39 9 34.78 9 29 9 C29 7.68 29 6.36 29 5 C19.43 5 9.86 5 0 5 C0 3.35 0 1.7 0 0 Z " fill="#2C9FD3" transform="translate(37,87)"/>
<path d="M0 0 C1.32 0 2.64 0 4 0 C4 31.68 4 63.36 4 96 C2.68 96 1.36 96 0 96 C0 64.32 0 32.64 0 0 Z " fill="#141515" transform="translate(146,29)"/>
<path d="M0 0 C30.36 0 60.72 0 92 0 C92 1.32 92 2.64 92 4 C61.64 4 31.28 4 0 4 C0 2.68 0 1.36 0 0 Z " fill="#141414" transform="translate(33,146)"/>
<path d="M0 0 C10.89 0 21.78 0 33 0 C33 1.32 33 2.64 33 4 C35.475 4.495 35.475 4.495 38 5 C38 5.99 38 6.98 38 8 C39.32 8 40.64 8 42 8 C42 9.32 42 10.64 42 12 C37.71 12 33.42 12 29 12 C29 10.68 29 9.36 29 8 C26.36 8 23.72 8 21 8 C21 9.32 21 10.64 21 12 C18.36 12 15.72 12 13 12 C13 10.68 13 9.36 13 8 C11.68 8 10.36 8 9 8 C9 6.68 9 5.36 9 4 C6.03 4 3.06 4 0 4 C0 2.68 0 1.36 0 0 Z " fill="#E7EDEF" transform="translate(79,54)"/>
<path d="M0 0 C1.32 0 2.64 0 4 0 C4 1.32 4 2.64 4 4 C6.97 4 9.94 4 13 4 C13 5.32 13 6.64 13 8 C14.32 8 15.64 8 17 8 C17 9.32 17 10.64 17 12 C19.64 12 22.28 12 25 12 C25 10.68 25 9.36 25 8 C27.64 8 30.28 8 33 8 C33 9.32 33 10.64 33 12 C37.29 12 41.58 12 46 12 C46 10.68 46 9.36 46 8 C47.32 8 48.64 8 50 8 C50 9.32 50 10.64 50 12 C51.32 12 52.64 12 54 12 C54 16.29 54 20.58 54 25 C52.68 25 51.36 25 50 25 C50 22.36 50 19.72 50 17 C48.68 17 47.36 17 46 17 C46 15.68 46 14.36 46 13 C36.43 13 26.86 13 17 13 C17 14.32 17 15.64 17 17 C15.35 17 13.7 17 12 17 C12 14.36 12 11.72 12 9 C8.04 9 4.08 9 0 9 C0 9.99 0 10.98 0 12 C-2.64 12.33 -5.28 12.66 -8 13 C-8 11.35 -8 9.7 -8 8 C-6.68 8 -5.36 8 -4 8 C-4 6.68 -4 5.36 -4 4 C-2.68 4 -1.36 4 0 4 C0 2.68 0 1.36 0 0 Z " fill="#91D6BE" transform="translate(75,54)"/>
<path d="M0 0 C4.29 0 8.58 0 13 0 C13 1.32 13 2.64 13 4 C11.68 4 10.36 4 9 4 C9 5.32 9 6.64 9 8 C11.64 8 14.28 8 17 8 C17 9.32 17 10.64 17 12 C22.61 12 28.22 12 34 12 C34 10.68 34 9.36 34 8 C36.64 8 39.28 8 42 8 C42 6.68 42 5.36 42 4 C43.32 4 44.64 4 46 4 C46 5.65 46 7.3 46 9 C43.36 9 40.72 9 38 9 C38 10.32 38 11.64 38 13 C35.03 13 32.06 13 29 13 C29 14.32 29 15.64 29 17 C26.36 17 23.72 17 21 17 C21 15.68 21 14.36 21 13 C18.03 13 15.06 13 12 13 C12 11.68 12 10.36 12 9 C9.36 8.67 6.72 8.34 4 8 C4 6.68 4 5.36 4 4 C2.68 4 1.36 4 0 4 C0 2.68 0 1.36 0 0 Z " fill="#93BFDA" transform="translate(54,104)"/>
<path d="M0 0 C1.65 0 3.3 0 5 0 C5 1.32 5 2.64 5 4 C7.64 4 10.28 4 13 4 C13 5.32 13 6.64 13 8 C43.36 8 73.72 8 105 8 C105 6.68 105 5.36 105 4 C107.64 4 110.28 4 113 4 C113 2.68 113 1.36 113 0 C114.65 0 116.3 0 118 0 C118 1.65 118 3.3 118 5 C115.03 5 112.06 5 109 5 C109 6.32 109 7.64 109 9 C76 9 43 9 9 9 C9 7.68 9 6.36 9 5 C6.36 5 3.72 5 1 5 C0.67 3.35 0.34 1.7 0 0 Z " fill="#A2A6B2" transform="translate(20,133)"/>
<path d="M0 0 C1.65 0 3.3 0 5 0 C5 1.32 5 2.64 5 4 C11.6 4 18.2 4 25 4 C25 2.68 25 1.36 25 0 C27.97 0 30.94 0 34 0 C34 1.65 34 3.3 34 5 C32.68 5 31.36 5 30 5 C30 5.99 30 6.98 30 8 C33.96 8 37.92 8 42 8 C42 6.68 42 5.36 42 4 C44.64 4 47.28 4 50 4 C50 2.68 50 1.36 50 0 C51.65 0 53.3 0 55 0 C55 2.97 55 5.94 55 9 C54.505 7.02 54.505 7.02 54 5 C51.36 5 48.72 5 46 5 C46 6.32 46 7.64 46 9 C40.39 9 34.78 9 29 9 C29 7.68 29 6.36 29 5 C19.43 5 9.86 5 0 5 C0 3.35 0 1.7 0 0 Z " fill="#70B3D9" transform="translate(37,87)"/>
<path d="M0 0 C1.32 0 2.64 0 4 0 C4 1.32 4 2.64 4 4 C3.01 4 2.02 4 1 4 C1 6.97 1 9.94 1 13 C-0.32 13 -1.64 13 -3 13 C-2.98525131 14.16066986 -2.97050262 15.32133972 -2.95530701 16.5171814 C-2.81722686 27.43587947 -2.68449078 38.35463105 -2.5570364 49.27345848 C-2.49133205 54.88742114 -2.42372078 60.50134755 -2.35180664 66.11523438 C-2.28252253 71.52921627 -2.21817544 76.94323607 -2.15730476 82.35731888 C-2.13316087 84.42667409 -2.10721407 86.49600904 -2.07946587 88.56531906 C-2.04101367 91.45546041 -2.00887413 94.34560625 -1.97827148 97.23583984 C-1.96532547 98.09826797 -1.95237946 98.96069611 -1.93904114 99.84925842 C-1.88594784 105.77189568 -1.88594784 105.77189568 -3 108 C-2.01 108.33 -1.02 108.66 0 109 C-1.32 109 -2.64 109 -4 109 C-4 76 -4 43 -4 9 C-2.68 9 -1.36 9 0 9 C0 6.03 0 3.06 0 0 Z " fill="#D5D7DC" transform="translate(16,16)"/>
<path d="M0 0 C1.65 0 3.3 0 5 0 C5 1.32 5 2.64 5 4 C6.32 4 7.64 4 9 4 C9 5.32 9 6.64 9 8 C9.99 8 10.98 8 12 8 C12 6.68 12 5.36 12 4 C13.32 4 14.64 4 16 4 C16.36923077 8.55384615 16.36923077 8.55384615 14.5 10.8125 C14.005 11.204375 13.51 11.59625 13 12 C14.32 12 15.64 12 17 12 C17 13.32 17 14.64 17 16 C19.64 16 22.28 16 25 16 C25 17.65 25 19.3 25 21 C23.68 21 22.36 21 21 21 C21 19.68 21 18.36 21 17 C18.03 17 15.06 17 12 17 C12 15.68 12 14.36 12 13 C10.68 13 9.36 13 8 13 C8 11.68 8 10.36 8 9 C6.68 9 5.36 9 4 9 C4 7.35 4 5.7 4 4 C2.68 4 1.36 4 0 4 C0 2.68 0 1.36 0 0 Z " fill="#30B598" transform="translate(50,58)"/>
<path d="M0 0 C1.65 0 3.3 0 5 0 C3.68 0.33 2.36 0.66 1 1 C0.87625 2.299375 0.7525 3.59875 0.625 4.9375 C0.4140625 7.15234375 0.4140625 7.15234375 0 9 C-0.99 9.495 -0.99 9.495 -2 10 C-2.40729228 12.32156597 -2.74438677 14.6568787 -3 17 C-4.32 17 -5.64 17 -7 17 C-7 22.61 -7 28.22 -7 34 C-6.01 34 -5.02 34 -4 34 C-4 36.64 -4 39.28 -4 42 C-5.32 42 -6.64 42 -8 42 C-8 31.11 -8 20.22 -8 9 C-6.68 9 -5.36 9 -4 9 C-4 7.35 -4 5.7 -4 4 C-2.68 4 -1.36 4 0 4 C0 2.68 0 1.36 0 0 Z " fill="#60B0D9" transform="translate(37,37)"/>
<path d="M0 0 C2.64 0 5.28 0 8 0 C8 1.32 8 2.64 8 4 C7.01 4 6.02 4 5 4 C5 5.32 5 6.64 5 8 C2.03 8 -0.94 8 -4 8 C-4 9.32 -4 10.64 -4 12 C-5.32 12 -6.64 12 -8 12 C-8 10.68 -8 9.36 -8 8 C-9.32 8 -10.64 8 -12 8 C-12 6.68 -12 5.36 -12 4 C-8.04 4 -4.08 4 0 4 C0 2.68 0 1.36 0 0 Z " fill="#C5D8E5" transform="translate(83,92)"/>
<path d="M0 0 C1.32 0 2.64 0 4 0 C4 1.32 4 2.64 4 4 C5.32 4 6.64 4 8 4 C8 8.29 8 12.58 8 17 C6.68 17 5.36 17 4 17 C4 14.36 4 11.72 4 9 C2.68 9 1.36 9 0 9 C0 6.03 0 3.06 0 0 Z " fill="#A4DACD" transform="translate(121,62)"/>
<path d="M0 0 C1.32 0 2.64 0 4 0 C4 1.32 4 2.64 4 4 C6.97 4 9.94 4 13 4 C13 5.32 13 6.64 13 8 C7.39 8 1.78 8 -4 8 C-4 6.68 -4 5.36 -4 4 C-2.68 4 -1.36 4 0 4 C0 2.68 0 1.36 0 0 Z " fill="#A8DCD4" transform="translate(75,54)"/>
<path d="M0 0 C1.32 0 2.64 0 4 0 C4 6.6 4 13.2 4 20 C2.68 20 1.36 20 0 20 C0 13.4 0 6.8 0 0 Z " fill="#65D384" transform="translate(125,46)"/>
<path d="M0 0 C8.58 0 17.16 0 26 0 C26 1.32 26 2.64 26 4 C27.32 4 28.64 4 30 4 C30 5.32 30 6.64 30 8 C31.32 8.33 32.64 8.66 34 9 C32.35 9 30.7 9 29 9 C29 7.68 29 6.36 29 5 C26.36 5 23.72 5 21 5 C21 3.68 21 2.36 21 1 C15.72 1 10.44 1 5 1 C5 1.99 5 2.98 5 4 C2.36 4.33 -0.28 4.66 -3 5 C-2.01 4.67 -1.02 4.34 0 4 C0 2.68 0 1.36 0 0 Z " fill="#90DBB5" transform="translate(91,33)"/>
<path d="M0 0 C7.92 0 15.84 0 24 0 C24 1.32 24 2.64 24 4 C23.01 4 22.02 4 21 4 C21 5.32 21 6.64 21 8 C21.99 8 22.98 8 24 8 C24.33 7.01 24.66 6.02 25 5 C25 6.32 25 7.64 25 9 C23.35 9 21.7 9 20 9 C20 6.36 20 3.72 20 1 C16.04 1 12.08 1 8 1 C8 1.99 8 2.98 8 4 C5.36 4.33 2.72 4.66 0 5 C0 3.35 0 1.7 0 0 Z " fill="#55C59F" transform="translate(67,62)"/>
<path d="M0 0 C2.64 0 5.28 0 8 0 C8 4.29 8 8.58 8 13 C6.68 13 5.36 13 4 13 C4 10.03 4 7.06 4 4 C2.68 4 1.36 4 0 4 C0 2.68 0 1.36 0 0 Z " fill="#000721" transform="translate(138,12)"/>
<path d="M0 0 C2.64 0 5.28 0 8 0 C8 1.32 8 2.64 8 4 C6.68 4 5.36 4 4 4 C4 6.97 4 9.94 4 13 C2.68 13 1.36 13 0 13 C0 8.71 0 4.42 0 0 Z " fill="#000620" transform="translate(12,12)"/>
<path d="M0 0 C1.65 0 3.3 0 5 0 C5 1.32 5 2.64 5 4 C6.32 4 7.64 4 9 4 C9 5.65 9 7.3 9 9 C6.03 9 3.06 9 0 9 C0 6.03 0 3.06 0 0 Z " fill="#01021B" transform="translate(12,137)"/>
<path d="M0 0 C1.65 0 3.3 0 5 0 C5 2.97 5 5.94 5 9 C4.67 7.68 4.34 6.36 4 5 C1.36 5 -1.28 5 -4 5 C-4 6.32 -4 7.64 -4 9 C-9.28 9 -14.56 9 -20 9 C-20 8.67 -20 8.34 -20 8 C-16.04 8 -12.08 8 -8 8 C-8 6.68 -8 5.36 -8 4 C-5.36 4 -2.72 4 0 4 C0 2.68 0 1.36 0 0 Z " fill="#61BAD9" transform="translate(87,87)"/>
<path d="M0 0 C1.32 0 2.64 0 4 0 C4.04241723 2.33294775 4.04092937 4.66702567 4 7 C3 8 3 8 0.27734375 8.09765625 C-1.37587891 8.08025391 -1.37587891 8.08025391 -3.0625 8.0625 C-4.16722656 8.05347656 -5.27195312 8.04445313 -6.41015625 8.03515625 C-7.69212891 8.01775391 -7.69212891 8.01775391 -9 8 C-9 6.68 -9 5.36 -9 4 C-6.36 3.67 -3.72 3.34 -1 3 C-0.67 2.01 -0.34 1.02 0 0 Z " fill="#6ED0A2" transform="translate(84,38)"/>
<path d="M0 0 C2.64 0 5.28 0 8 0 C8 2.64 8 5.28 8 8 C5.36 8 2.72 8 0 8 C0 5.36 0 2.72 0 0 Z " fill="#76C0DE" transform="translate(75,79)"/>
<path d="M0 0 C1.65 0 3.3 0 5 0 C4.67 2.31 4.34 4.62 4 7 C5.32 7 6.64 7 8 7 C8 8.65 8 10.3 8 12 C6.35 12 4.7 12 3 12 C3 10.68 3 9.36 3 8 C1.68 8 0.36 8 -1 8 C-0.67 5.36 -0.34 2.72 0 0 Z " fill="#2EABC3" transform="translate(38,38)"/>
<path d="M0 0 C1.32 0 2.64 0 4 0 C4 2.97 4 5.94 4 9 C1.36 9 -1.28 9 -4 9 C-4 7.35 -4 5.7 -4 4 C-2.68 4 -1.36 4 0 4 C0 2.68 0 1.36 0 0 Z " fill="#000124" transform="translate(142,137)"/>
<path d="M0 0 C1.65 0 3.3 0 5 0 C5 1.65 5 3.3 5 5 C3.68 5 2.36 5 1 5 C1 6.32 1 7.64 1 9 C-0.32 9 -1.64 9 -3 9 C-3 10.32 -3 11.64 -3 13 C-4.65 13 -6.3 13 -8 13 C-6.68 12.67 -5.36 12.34 -4 12 C-4 9.69 -4 7.38 -4 5 C-2.68 4.67 -1.36 4.34 0 4 C0 2.68 0 1.36 0 0 Z " fill="#65C6B5" transform="translate(116,87)"/>
<path d="M0 0 C4.29 0 8.58 0 13 0 C13 1.32 13 2.64 13 4 C8.71 4 4.42 4 0 4 C0 2.68 0 1.36 0 0 Z " fill="#72CEB4" transform="translate(87,50)"/>
<path d="M0 0 C1.65 0 3.3 0 5 0 C3.68 0.33 2.36 0.66 1 1 C0.87625 2.299375 0.7525 3.59875 0.625 4.9375 C0.4140625 7.15234375 0.4140625 7.15234375 0 9 C-0.99 9.495 -0.99 9.495 -2 10 C-2.33 10.99 -2.66 11.98 -3 13 C-4.65 13 -6.3 13 -8 13 C-8 11.68 -8 10.36 -8 9 C-6.68 9 -5.36 9 -4 9 C-4 7.35 -4 5.7 -4 4 C-2.68 4 -1.36 4 0 4 C0 2.68 0 1.36 0 0 Z " fill="#6CBEDA" transform="translate(37,37)"/>
<path d="M0 0 C1.32 0 2.64 0 4 0 C4 3.96 4 7.92 4 12 C2.68 12 1.36 12 0 12 C0 8.04 0 4.08 0 0 Z " fill="#080828" transform="translate(129,138)"/>
<path d="M0 0 C1.32 0 2.64 0 4 0 C4 3.96 4 7.92 4 12 C2.68 12 1.36 12 0 12 C0 8.04 0 4.08 0 0 Z " fill="#080828" transform="translate(25,138)"/>
<path d="M0 0 C8.25 0 16.5 0 25 0 C25 1.32 25 2.64 25 4 C26.32 4.33 27.64 4.66 29 5 C26.36 5 23.72 5 21 5 C20.67 3.68 20.34 2.36 20 1 C13.4 1 6.8 1 0 1 C0 0.67 0 0.34 0 0 Z " fill="#76D0B0" transform="translate(42,33)"/>
<path d="M0 0 C2.64 0 5.28 0 8 0 C8 1.32 8 2.64 8 4 C10.97 4 13.94 4 17 4 C17 4.33 17 4.66 17 5 C14.91673869 5.02709444 12.83337559 5.04643873 10.75 5.0625 C9.00976562 5.07990234 9.00976562 5.07990234 7.234375 5.09765625 C4.59022872 5.01782092 2.50173909 4.78643778 0 4 C0 2.68 0 1.36 0 0 Z " fill="#38B9A3" transform="translate(96,87)"/>
<path d="M0 0 C2.64 0 5.28 0 8 0 C8 1.32 8 2.64 8 4 C7.01 4 6.02 4 5 4 C5 5.32 5 6.64 5 8 C3.35 8 1.7 8 0 8 C1.32 7.67 2.64 7.34 4 7 C4 6.01 4 5.02 4 4 C2.68 4 1.36 4 0 4 C0 2.68 0 1.36 0 0 Z " fill="#AAD1E3" transform="translate(83,92)"/>
<path d="M0 0 C1.65 0 3.3 0 5 0 C5 1.32 5 2.64 5 4 C5.99 4 6.98 4 8 4 C8 5.65 8 7.3 8 9 C6.68 9 5.36 9 4 9 C4 7.35 4 5.7 4 4 C2.68 4 1.36 4 0 4 C0 2.68 0 1.36 0 0 Z " fill="#2AAEA9" transform="translate(50,58)"/>
<path d="M0 0 C0.33 0 0.66 0 1 0 C0.67 2.64 0.34 5.28 0 8 C-2.64 8 -5.28 8 -8 8 C-8 6.68 -8 5.36 -8 4 C-5.36 4 -2.72 4 0 4 C0 2.68 0 1.36 0 0 Z " fill="#A8D0E2" transform="translate(108,100)"/>
<path d="M0 0 C3.3 0 6.6 0 10 0 C9.67 1.32 9.34 2.64 9 4 C6.03 4 3.06 4 0 4 C0 2.68 0 1.36 0 0 Z " fill="#B9D3E3" transform="translate(46,92)"/>
<path d="M0 0 C1.65 0 3.3 0 5 0 C5 1.32 5 2.64 5 4 C6.32 4 7.64 4 9 4 C9 5.32 9 6.64 9 8 C7.68 8 6.36 8 5 8 C4.67 7.01 4.34 6.02 4 5 C1.98491642 4.26676204 1.98491642 4.26676204 0 4 C0 2.68 0 1.36 0 0 Z " fill="#71D0A8" transform="translate(112,54)"/>
<path d="M0 0 C2.97 0 5.94 0 9 0 C9 1.32 9 2.64 9 4 C6.03 4 3.06 4 0 4 C0 2.68 0 1.36 0 0 Z " fill="#35B5A4" transform="translate(83,83)"/>
<path d="M0 0 C1.32 0 2.64 0 4 0 C4 1.32 4 2.64 4 4 C5.32 4 6.64 4 8 4 C8 5.32 8 6.64 8 8 C6.35 8 4.7 8 3 8 C3 6.68 3 5.36 3 4 C2.01 4 1.02 4 0 4 C0 2.68 0 1.36 0 0 Z " fill="#4CB2D1" transform="translate(67,75)"/>
<path d="M0 0 C2.64 0 5.28 0 8 0 C8 1.32 8 2.64 8 4 C5.36 4 2.72 4 0 4 C0 2.68 0 1.36 0 0 Z " fill="#08082A" transform="translate(8,129)"/>
<path d="M0 0 C2.64 0 5.28 0 8 0 C8 1.32 8 2.64 8 4 C5.36 4 2.72 4 0 4 C0 2.68 0 1.36 0 0 Z " fill="#05141A" transform="translate(8,125)"/>
<path d="M0 0 C2.64 0 5.28 0 8 0 C8 1.32 8 2.64 8 4 C5.36 4 2.72 4 0 4 C0 2.68 0 1.36 0 0 Z " fill="#B7CFDE" transform="translate(75,117)"/>
<path d="M0 0 C1.32 0 2.64 0 4 0 C4 1.65 4 3.3 4 5 C-1.28 5 -6.56 5 -12 5 C-12 4.67 -12 4.34 -12 4 C-8.04 4 -4.08 4 0 4 C0 2.68 0 1.36 0 0 Z " fill="#49ABD7" transform="translate(79,91)"/>
<path d="M0 0 C2.64 0 5.28 0 8 0 C8 1.32 8 2.64 8 4 C5.36 4 2.72 4 0 4 C0 2.68 0 1.36 0 0 Z " fill="#C5DEE3" transform="translate(75,79)"/>
<path d="M0 0 C2.64 0 5.28 0 8 0 C8 1.32 8 2.64 8 4 C5.36 4 2.72 4 0 4 C0 2.68 0 1.36 0 0 Z " fill="#79C9C0" transform="translate(75,75)"/>
<path d="M0 0 C2.64 0 5.28 0 8 0 C8 1.32 8 2.64 8 4 C5.36 4 2.72 4 0 4 C0 2.68 0 1.36 0 0 Z " fill="#43BD9B" transform="translate(75,71)"/>
<path d="M0 0 C1.32 0 2.64 0 4 0 C4 2.64 4 5.28 4 8 C2.68 8 1.36 8 0 8 C0 5.36 0 2.72 0 0 Z " fill="#BAE0DA" transform="translate(121,62)"/>
<path d="M0 0 C2.64 0 5.28 0 8 0 C8 1.32 8 2.64 8 4 C5.36 4 2.72 4 0 4 C0 2.68 0 1.36 0 0 Z " fill="#B0DDD7" transform="translate(100,62)"/>
<path d="M0 0 C1.32 0 2.64 0 4 0 C4 2.64 4 5.28 4 8 C2.68 8 1.36 8 0 8 C0 5.36 0 2.72 0 0 Z " fill="#77D6A2" transform="translate(125,46)"/>
<path d="M0 0 C2.64 0 5.28 0 8 0 C8 1.32 8 2.64 8 4 C5.36 4 2.72 4 0 4 C0 2.68 0 1.36 0 0 Z " fill="#85D3C1" transform="translate(75,42)"/>
<path d="M0 0 C2.31 0 4.62 0 7 0 C7 0.99 7 1.98 7 3 C6.01 3 5.02 3 4 3 C4 4.65 4 6.3 4 8 C3.67 6.68 3.34 5.36 3 4 C2.01 4 1.02 4 0 4 C0 2.68 0 1.36 0 0 Z " fill="#8FC4DF" transform="translate(63,88)"/>
<path d="M0 0 C1.32 0 2.64 0 4 0 C4 0.99 4 1.98 4 3 C5.65 3 7.3 3 9 3 C9 4.32 9 5.64 9 7 C10.32 7.33 11.64 7.66 13 8 C11.35 8 9.7 8 8 8 C8 6.68 8 5.36 8 4 C5.36 4 2.72 4 0 4 C0 2.68 0 1.36 0 0 Z " fill="#82D9A5" transform="translate(112,34)"/>
<path d="M0 0 C2.64 0 5.28 0 8 0 C8 1.98 8 3.96 8 6 C6.35 5.67 4.7 5.34 3 5 C3 3.68 3 2.36 3 1 C2.01 0.67 1.02 0.34 0 0 Z " fill="#EEEFF1" transform="translate(126,12)"/>
<path d="M0 0 C1.32 0 2.64 0 4 0 C4 2.31 4 4.62 4 7 C2.68 7 1.36 7 0 7 C0 4.69 0 2.38 0 0 Z " fill="#45B7D1" transform="translate(108,92)"/>
<path d="M0 0 C1.32 0 2.64 0 4 0 C4 1.32 4 2.64 4 4 C3.01 4 2.02 4 1 4 C1 5.32 1 6.64 1 8 C1.99 8 2.98 8 4 8 C4.33 7.01 4.66 6.02 5 5 C5 6.32 5 7.64 5 9 C3.35 9 1.7 9 0 9 C0 6.03 0 3.06 0 0 Z " fill="#6ACAAF" transform="translate(87,62)"/>
<path d="M0 0 C1.65 0 3.3 0 5 0 C5 1.65 5 3.3 5 5 C3.35 5 1.7 5 0 5 C0 3.35 0 1.7 0 0 Z " fill="#02171C" transform="translate(133,141)"/>
<path d="M0 0 C1.65 0 3.3 0 5 0 C5 1.65 5 3.3 5 5 C3.35 5 1.7 5 0 5 C0 3.35 0 1.7 0 0 Z " fill="#8A8D98" transform="translate(133,133)"/>
<path d="M0 0 C1.65 0 3.3 0 5 0 C5 1.65 5 3.3 5 5 C3.35 4.67 1.7 4.34 0 4 C0 2.68 0 1.36 0 0 Z " fill="#80838F" transform="translate(20,133)"/>
<path d="M0 0 C1.32 0 2.64 0 4 0 C4 1.65 4 3.3 4 5 C1.36 5 -1.28 5 -4 5 C-2.68 4.67 -1.36 4.34 0 4 C0 2.68 0 1.36 0 0 Z " fill="#B5D1E1" transform="translate(96,108)"/>
<path d="M0 0 C2.64 0 5.28 0 8 0 C8 1.65 8 3.3 8 5 C6.68 5 5.36 5 4 5 C4 3.68 4 2.36 4 1 C2.68 0.67 1.36 0.34 0 0 Z " fill="#32B697" transform="translate(67,74)"/>
<path d="M0 0 C2.64 0 5.28 0 8 0 C8 0.99 8 1.98 8 3 C5.36 3 2.72 3 0 3 C0 2.01 0 1.02 0 0 Z " fill="#A1D9D2" transform="translate(79,59)"/>
<path d="M0 0 C2.64 0 5.28 0 8 0 C8 0.99 8 1.98 8 3 C5.36 3 2.72 3 0 3 C0 2.01 0 1.02 0 0 Z " fill="#D8E8E9" transform="translate(71,59)"/>
<path d="M0 0 C1.32 0 2.64 0 4 0 C4 1.32 4 2.64 4 4 C2.68 4 1.36 4 0 4 C-0.33 5.32 -0.66 6.64 -1 8 C-1.04241723 5.66705225 -1.04092937 3.33297433 -1 1 C-0.67 0.67 -0.34 0.34 0 0 Z " fill="#67AED5" transform="translate(63,104)"/>
<path d="M0 0 C1.32 0 2.64 0 4 0 C4 1.32 4 2.64 4 4 C5.32 4.33 6.64 4.66 8 5 C5.36 5 2.72 5 0 5 C0 3.35 0 1.7 0 0 Z " fill="#39B1C9" transform="translate(92,87)"/>
<path d="M0 0 C1.65 0 3.3 0 5 0 C4.67 1.32 4.34 2.64 4 4 C1.36 4 -1.28 4 -4 4 C-2.68 3.67 -1.36 3.34 0 3 C0 2.01 0 1.02 0 0 Z " fill="#62CF8F" transform="translate(96,34)"/>
<path d="M0 0 C1.32 0 2.64 0 4 0 C4 1.65 4 3.3 4 5 C2.68 5 1.36 5 0 5 C0 3.35 0 1.7 0 0 Z " fill="#01191A" transform="translate(21,141)"/>
<path d="M0 0 C1.65 0 3.3 0 5 0 C5 1.32 5 2.64 5 4 C3.35 4 1.7 4 0 4 C0 2.68 0 1.36 0 0 Z " fill="#020433" transform="translate(12,137)"/>
<path d="M0 0 C2.64 0 5.28 0 8 0 C6.68 0.33 5.36 0.66 4 1 C4 1.99 4 2.98 4 4 C2.68 4 1.36 4 0 4 C0 2.68 0 1.36 0 0 Z " fill="#C2C6CD" transform="translate(125,137)"/>
<path d="M0 0 C2.64 0 5.28 0 8 0 C8 1.32 8 2.64 8 4 C6.68 4 5.36 4 4 4 C4 3.01 4 2.02 4 1 C2.68 0.67 1.36 0.34 0 0 Z " fill="#C0C4CC" transform="translate(25,137)"/>
<path d="M0 0 C1.65 0 3.3 0 5 0 C5 1.32 5 2.64 5 4 C3.35 4 1.7 4 0 4 C0 2.68 0 1.36 0 0 Z " fill="#01191A" transform="translate(12,133)"/>
<path d="M0 0 C1.32 0 2.64 0 4 0 C4 1.65 4 3.3 4 5 C2.68 5 1.36 5 0 5 C0 3.35 0 1.7 0 0 Z " fill="#9CC6DD" transform="translate(88,112)"/>
<path d="M0 0 C1.32 0 2.64 0 4 0 C4 1.65 4 3.3 4 5 C2.68 5 1.36 5 0 5 C0 3.35 0 1.7 0 0 Z " fill="#4EB5DB" transform="translate(104,99)"/>
<path d="M0 0 C1.65 0 3.3 0 5 0 C5 1.32 5 2.64 5 4 C3.35 4 1.7 4 0 4 C0 2.68 0 1.36 0 0 Z " fill="#2AAAB4" transform="translate(62,71)"/>
<path d="M0 0 C1.65 0 3.3 0 5 0 C5 1.32 5 2.64 5 4 C3.35 4 1.7 4 0 4 C0 2.68 0 1.36 0 0 Z " fill="#67CDA4" transform="translate(116,67)"/>
<path d="M0 0 C1.32 0 2.64 0 4 0 C4 1.65 4 3.3 4 5 C2.68 5 1.36 5 0 5 C0 3.35 0 1.7 0 0 Z " fill="#B7DED7" transform="translate(67,62)"/>
<path d="M0 0 C1.32 0 2.64 0 4 0 C4 1.65 4 3.3 4 5 C2.68 5 1.36 5 0 5 C0 3.35 0 1.7 0 0 Z " fill="#2DB39B" transform="translate(42,45)"/>
<path d="M0 0 C1.65 0 3.3 0 5 0 C5 1.32 5 2.64 5 4 C3.35 4 1.7 4 0 4 C0 2.68 0 1.36 0 0 Z " fill="#E7F3F2" transform="translate(104,29)"/>
<path d="M0 0 C1.65 0 3.3 0 5 0 C5 1.32 5 2.64 5 4 C3.35 4 1.7 4 0 4 C0 2.68 0 1.36 0 0 Z " fill="#C2C2C9" transform="translate(20,12)"/>
<path d="M0 0 C1.65 0 3.3 0 5 0 C4.67 1.32 4.34 2.64 4 4 C2.68 4 1.36 4 0 4 C0 2.68 0 1.36 0 0 Z " fill="#238ECA" transform="translate(63,108)"/>
<path d="M0 0 C1.65 0 3.3 0 5 0 C5 1.32 5 2.64 5 4 C3.68 4 2.36 4 1 4 C0.67 2.68 0.34 1.36 0 0 Z " fill="#A1DBC9" transform="translate(116,58)"/>
<path d="M0 0 C1.65 0 3.3 0 5 0 C4.67 1.32 4.34 2.64 4 4 C2.68 4 1.36 4 0 4 C0 2.68 0 1.36 0 0 Z " fill="#5CCC99" transform="translate(100,50)"/>
<path d="M0 0 C1.65 0 3.3 0 5 0 C4.67 1.32 4.34 2.64 4 4 C2.68 4 1.36 4 0 4 C0 2.68 0 1.36 0 0 Z " fill="#33B69D" transform="translate(38,38)"/>
<path d="M0 0 C1.32 0 2.64 0 4 0 C4 1.32 4 2.64 4 4 C2.68 4.33 1.36 4.66 0 5 C0 3.35 0 1.7 0 0 Z " fill="#F1F2F4" transform="translate(17,21)"/>
</svg>
